<svg xmlns="http://www.w3.org/2000/svg" viewBox="0 0 200 240" width="200" height="240">
  <rect width="200" height="240" fill="#f9f6f0"/>
  <!-- Head -->
  <ellipse cx="100" cy="110" rx="62" ry="78" fill="none" stroke="#2a1a0a" stroke-width="1.8"/>
  <!-- Eyes -->
  <ellipse cx="76" cy="95" rx="10" ry="7" fill="none" stroke="#2a1a0a" stroke-width="1.4"/>
  <ellipse cx="124" cy="95" rx="10" ry="7" fill="none" stroke="#2a1a0a" stroke-width="1.4"/>
  <circle cx="76" cy="95" r="4" fill="#2a1a0a"/>
  <circle cx="124" cy="95" r="4" fill="#2a1a0a"/>
  <!-- Nose -->
  <path d="M100 102 Q94 120 88 126 Q100 130 112 126 Q106 120 100 102" fill="none" stroke="#2a1a0a" stroke-width="1.2"/>
  <!-- Mouth -->
  <path d="M82 148 Q100 162 118 148" fill="none" stroke="#2a1a0a" stroke-width="1.6"/>
  <!-- Neck -->
  <line x1="88" y1="185" x2="82" y2="220" stroke="#2a1a0a" stroke-width="1.4"/>
  <line x1="112" y1="185" x2="118" y2="220" stroke="#2a1a0a" stroke-width="1.4"/>
  <!-- Shoulders -->
  <path d="M50 240 Q64 215 82 220 L118 220 Q136 215 150 240" fill="none" stroke="#2a1a0a" stroke-width="1.4"/>
  <!-- Hair lines suggestion -->
  <path d="M45 108 Q48 65 100 40 Q152 65 155 108" fill="none" stroke="#2a1a0a" stroke-width="1.6"/>
  <path d="M45 108 Q42 90 48 75" fill="none" stroke="#2a1a0a" stroke-width="1"/>
</svg>
